<svg id="svg" version="1.1" xmlns="http://www.w3.org/2000/svg" xmlns:xlink="http://www.w3.org/1999/xlink" width="400" height="130.79365079365078" viewBox="0, 0, 400,130.79365079365078"><g id="svgg"><path id="path0" d="M11.348 8.515 C 10.832 8.584,10.496 8.748,10.223 9.066 L 9.833 9.519 9.834 62.718 C 9.835 115.849,9.844 116.661,10.402 117.424 C 10.661 117.780,25.751 118.036,27.031 117.706 C 28.129 117.424,28.075 118.226,28.167 101.050 C 28.233 88.619,28.293 85.473,28.467 85.300 C 28.640 85.127,31.839 85.062,44.383 84.976 C 53.018 84.917,60.346 84.817,60.667 84.754 C 60.987 84.691,62.450 84.417,63.917 84.144 C 65.383 83.872,66.996 83.498,67.500 83.312 C 68.004 83.126,69.017 82.785,69.750 82.553 C 70.483 82.321,71.271 82.031,71.500 81.908 C 71.729 81.785,72.554 81.381,73.333 81.009 C 75.952 79.761,78.453 78.138,80.884 76.110 C 83.680 73.777,87.378 69.390,88.646 66.902 C 88.923 66.360,89.340 65.658,89.574 65.343 C 89.809 65.027,90.000 64.637,90.000 64.477 C 90.000 64.316,90.305 63.599,90.678 62.884 C 91.051 62.169,91.507 60.988,91.690 60.260 C 91.874 59.532,92.133 58.727,92.265 58.471 C 94.366 54.409,94.314 41.273,92.173 35.000 C 91.907 34.221,91.643 33.302,91.587 32.958 C 91.531 32.614,91.237 31.864,90.934 31.291 C 90.632 30.718,90.256 29.860,90.099 29.384 C 89.941 28.908,89.678 28.346,89.512 28.134 C 89.347 27.923,89.012 27.354,88.767 26.869 C 88.175 25.697,87.189 24.167,87.026 24.167 C 86.954 24.167,86.761 23.885,86.597 23.542 C 85.535 21.314,79.184 15.446,76.197 13.932 C 75.742 13.702,75.268 13.413,75.143 13.291 C 74.834 12.988,72.720 11.930,71.910 11.673 C 71.547 11.557,70.673 11.206,69.967 10.893 C 69.261 10.579,68.021 10.178,67.210 10.001 C 66.400 9.824,65.478 9.571,65.160 9.438 C 64.843 9.306,63.983 9.118,63.250 9.020 C 62.517 8.923,61.617 8.794,61.250 8.734 C 60.401 8.594,12.334 8.383,11.348 8.515 M112.859 8.500 L 105.801 8.583 105.397 9.083 L 104.993 9.583 105.058 52.750 C 105.102 82.396,105.179 96.517,105.305 97.833 C 105.563 100.530,105.797 101.893,106.248 103.333 C 106.463 104.021,106.689 104.877,106.749 105.237 C 107.467 109.501,112.279 115.663,115.886 116.935 C 116.267 117.070,116.729 117.277,116.914 117.397 C 118.862 118.661,121.683 119.083,128.167 119.082 C 135.614 119.080,137.625 118.828,138.354 117.805 L 138.724 117.284 138.511 111.601 C 138.342 107.110,138.247 105.864,138.058 105.667 C 137.858 105.457,137.284 105.425,134.534 105.469 C 128.422 105.566,125.820 104.680,124.307 101.988 C 124.104 101.628,123.885 101.333,123.820 101.333 C 123.606 101.333,123.122 99.687,122.451 96.667 C 122.099 95.084,122.099 95.066,122.008 52.213 C 121.917 9.624,121.914 9.340,121.583 9.013 C 121.027 8.463,120.188 8.413,112.859 8.500 M378.424 8.609 C 369.997 10.415,368.143 21.899,375.500 26.730 C 378.622 28.780,383.773 28.842,386.771 26.866 C 388.049 26.024,390.000 24.011,390.000 23.535 C 390.000 23.375,390.174 22.983,390.387 22.664 C 391.756 20.613,391.909 16.078,390.668 14.335 C 390.486 14.080,390.183 13.507,389.993 13.061 C 389.687 12.342,389.407 11.980,388.222 10.773 C 386.270 8.785,382.002 7.842,378.424 8.609 M57.490 24.345 C 58.891 24.457,60.007 24.639,60.508 24.836 C 60.944 25.008,61.775 25.272,62.352 25.422 C 63.424 25.699,65.350 26.599,66.250 27.243 C 66.525 27.440,67.045 27.771,67.406 27.980 C 68.086 28.372,68.368 28.612,69.724 29.952 C 72.065 32.266,74.575 36.359,74.973 38.512 C 75.065 39.013,75.287 39.796,75.465 40.253 C 76.475 42.837,76.476 50.187,75.468 52.747 C 75.288 53.204,75.065 53.986,74.973 54.486 C 74.561 56.717,72.005 60.848,69.537 63.272 C 68.761 64.034,67.554 65.008,66.855 65.438 C 66.156 65.867,65.358 66.383,65.083 66.585 C 64.808 66.787,64.133 67.082,63.583 67.239 C 63.033 67.397,62.323 67.677,62.004 67.863 C 60.551 68.708,60.362 68.718,43.896 68.789 L 28.541 68.855 28.187 68.405 L 27.833 67.955 27.843 46.936 C 27.853 24.652,27.851 24.711,28.502 24.381 C 29.043 24.108,54.140 24.076,57.490 24.345 M245.000 24.399 C 243.999 24.666,244.043 24.262,244.020 33.380 C 243.998 41.873,243.968 42.164,243.081 42.501 C 242.821 42.600,240.172 42.667,236.514 42.667 C 227.788 42.667,228.667 41.908,228.667 49.441 C 228.667 57.232,227.822 56.500,236.808 56.500 L 243.109 56.500 243.513 56.930 L 243.917 57.360 244.001 75.388 L 244.086 93.417 244.529 95.917 C 244.773 97.292,245.061 99.017,245.167 99.750 C 245.274 100.483,245.550 101.533,245.779 102.083 C 246.008 102.633,246.369 103.608,246.581 104.250 C 249.010 111.623,256.991 118.351,264.181 119.087 C 264.769 119.147,266.098 119.302,267.134 119.431 C 269.296 119.702,273.172 119.732,275.000 119.493 C 275.688 119.403,277.262 119.256,278.500 119.165 C 281.799 118.924,288.815 117.187,289.692 116.394 C 290.213 115.922,289.922 112.240,288.989 107.500 C 288.265 103.824,288.208 103.763,286.211 104.484 C 285.461 104.755,284.041 105.139,283.055 105.339 C 282.069 105.539,281.072 105.776,280.839 105.866 C 279.434 106.412,273.829 106.695,271.739 106.325 C 267.838 105.636,264.133 102.721,262.903 99.374 C 262.743 98.939,262.435 98.149,262.218 97.618 C 261.830 96.669,261.463 94.909,261.164 92.555 C 261.080 91.898,261.004 83.733,260.994 74.411 L 260.976 57.461 261.530 56.987 L 262.083 56.514 273.583 56.503 C 285.449 56.492,286.196 56.452,286.696 55.802 C 287.169 55.187,287.148 43.786,286.673 43.167 L 286.353 42.750 274.158 42.667 L 261.963 42.583 261.482 42.006 L 261.000 41.429 260.999 34.256 C 260.997 25.373,260.962 24.907,260.266 24.482 C 259.630 24.095,246.412 24.023,245.000 24.399 M180.417 40.949 C 178.360 41.085,173.440 41.895,172.000 42.334 C 171.129 42.599,169.791 42.969,169.026 43.156 C 168.261 43.343,167.361 43.642,167.026 43.820 C 166.691 43.998,165.927 44.299,165.328 44.490 C 164.730 44.680,163.980 45.009,163.662 45.221 C 163.344 45.432,162.821 45.711,162.500 45.839 C 162.022 46.031,160.362 46.951,159.567 47.465 C 157.675 48.687,156.059 49.962,154.352 51.582 C 152.960 52.901,150.000 56.284,150.000 56.554 C 150.000 56.652,149.817 56.923,149.593 57.158 C 149.238 57.529,148.865 58.142,147.609 60.417 C 146.716 62.035,145.085 66.020,144.944 66.927 C 144.887 67.299,144.612 68.294,144.334 69.137 C 142.858 73.618,142.859 86.761,144.336 90.964 C 144.519 91.484,144.782 92.511,144.922 93.247 C 145.061 93.982,145.431 95.258,145.743 96.083 C 146.642 98.461,147.814 101.218,147.970 101.322 C 148.048 101.374,148.307 101.847,148.546 102.373 C 148.784 102.898,149.172 103.581,149.407 103.889 C 149.642 104.197,150.003 104.763,150.209 105.147 C 150.866 106.371,153.695 109.627,155.417 111.142 C 157.539 113.010,160.457 114.973,162.167 115.683 C 162.671 115.892,163.233 116.156,163.417 116.270 C 163.600 116.384,164.387 116.663,165.167 116.891 C 165.946 117.119,166.921 117.431,167.333 117.585 C 171.907 119.291,181.002 119.324,185.773 117.653 C 186.310 117.465,187.275 117.135,187.917 116.920 C 192.753 115.299,198.702 110.672,200.831 106.875 C 201.049 106.485,201.284 106.167,201.352 106.167 C 201.420 106.167,201.723 105.787,202.024 105.322 C 202.772 104.167,203.327 104.947,203.335 107.167 C 203.355 112.589,206.755 116.164,213.500 117.854 C 214.718 118.159,220.471 118.162,222.083 117.858 C 225.139 117.282,225.000 117.576,225.000 111.690 C 225.000 105.882,225.031 105.970,222.917 105.760 C 219.930 105.463,218.815 104.851,217.864 102.988 C 217.036 101.364,217.011 100.490,217.005 73.202 L 217.000 48.654 216.375 48.008 C 215.815 47.429,211.984 45.667,211.287 45.667 C 211.192 45.667,210.696 45.468,210.183 45.226 C 209.671 44.983,208.501 44.578,207.584 44.325 C 206.667 44.072,205.579 43.751,205.167 43.611 C 204.754 43.472,203.479 43.161,202.333 42.920 C 201.188 42.680,199.912 42.375,199.500 42.243 C 196.534 41.292,186.004 40.578,180.417 40.949 M301.083 42.756 C 299.965 43.324,300.000 43.109,300.000 49.413 C 300.000 54.950,300.010 55.135,300.348 55.564 C 301.124 56.550,300.170 56.500,318.149 56.500 L 334.648 56.500 334.907 56.870 C 335.291 57.418,335.225 57.921,334.690 58.536 C 334.428 58.837,333.872 59.608,333.453 60.250 C 333.034 60.892,332.510 61.604,332.288 61.833 C 332.066 62.063,331.752 62.512,331.590 62.833 C 331.428 63.154,331.123 63.604,330.913 63.833 C 330.702 64.063,330.317 64.599,330.057 65.025 C 329.534 65.882,328.236 67.760,327.333 68.969 C 327.011 69.398,326.641 69.960,326.509 70.216 C 326.377 70.472,326.031 70.960,325.742 71.299 C 325.452 71.639,325.055 72.230,324.860 72.614 C 324.664 72.997,324.431 73.356,324.342 73.411 C 324.156 73.527,322.130 76.502,321.490 77.600 C 321.255 78.003,320.871 78.539,320.635 78.791 C 320.400 79.043,320.111 79.438,319.993 79.667 C 319.801 80.041,318.190 82.546,316.722 84.751 C 316.417 85.211,316.167 85.661,316.167 85.751 C 316.166 85.842,315.904 86.212,315.583 86.572 C 315.262 86.932,315.000 87.307,315.000 87.405 C 314.999 87.586,313.944 89.235,313.339 90.000 C 313.158 90.229,312.808 90.792,312.561 91.250 C 312.315 91.708,311.917 92.346,311.676 92.667 C 311.436 92.987,311.136 93.455,311.010 93.706 C 310.883 93.956,310.650 94.301,310.491 94.471 C 310.332 94.642,310.071 95.037,309.910 95.349 C 309.750 95.661,309.475 96.104,309.300 96.333 C 309.008 96.716,308.189 97.986,306.718 100.333 C 306.403 100.837,305.681 101.949,305.114 102.803 C 304.547 103.657,303.876 104.740,303.624 105.210 C 303.371 105.681,303.098 106.107,303.017 106.158 C 302.936 106.208,302.598 106.700,302.265 107.250 C 301.169 109.062,300.313 110.403,299.657 111.333 C 297.530 114.349,297.147 116.829,298.684 117.623 C 299.112 117.843,358.557 117.907,359.579 117.688 C 360.510 117.488,360.599 116.887,360.635 110.568 C 360.668 104.886,360.574 103.741,360.039 103.297 C 359.835 103.127,356.029 103.066,341.583 103.000 C 322.420 102.912,322.833 102.930,322.833 102.205 C 322.833 101.931,323.767 100.444,324.530 99.504 C 324.788 99.185,325.000 98.829,325.000 98.713 C 325.000 98.596,325.249 98.219,325.552 97.875 C 325.856 97.531,326.308 96.912,326.557 96.500 C 326.805 96.087,327.569 94.962,328.254 94.000 C 328.939 93.037,329.631 92.034,329.791 91.769 C 329.952 91.504,330.325 90.979,330.621 90.602 C 330.916 90.225,331.341 89.574,331.566 89.156 C 331.790 88.738,332.086 88.303,332.224 88.189 C 332.361 88.075,332.900 87.311,333.423 86.491 C 333.945 85.671,334.437 85.000,334.516 85.000 C 334.595 85.000,334.819 84.688,335.013 84.307 C 335.208 83.927,335.659 83.245,336.017 82.792 C 336.374 82.340,336.667 81.877,336.667 81.764 C 336.667 81.651,336.856 81.380,337.088 81.162 C 337.320 80.944,337.854 80.163,338.276 79.425 C 338.698 78.687,339.262 77.783,339.530 77.417 C 340.165 76.547,340.979 75.305,341.500 74.410 C 341.729 74.016,342.266 73.181,342.692 72.555 C 343.119 71.929,343.957 70.629,344.554 69.667 C 345.151 68.704,345.851 67.662,346.108 67.351 C 346.365 67.040,346.712 66.479,346.879 66.105 C 347.047 65.732,347.243 65.386,347.315 65.338 C 347.387 65.290,347.808 64.688,348.249 64.000 C 349.036 62.774,349.489 62.073,350.775 60.097 C 351.128 59.554,351.642 58.725,351.917 58.255 C 352.192 57.785,352.551 57.216,352.714 56.992 C 353.367 56.097,353.835 55.389,354.142 54.833 C 354.319 54.512,354.960 53.509,355.566 52.603 C 356.171 51.698,356.667 50.925,356.667 50.886 C 356.667 50.762,358.295 48.270,358.715 47.750 C 358.938 47.475,359.244 47.008,359.395 46.713 C 359.547 46.418,359.851 45.910,360.071 45.586 C 360.935 44.312,360.726 42.820,359.653 42.606 C 358.358 42.347,301.603 42.492,301.083 42.756 M373.256 43.184 L 372.667 43.701 372.667 79.936 L 372.667 116.170 373.016 116.914 C 373.479 117.898,373.123 117.861,381.703 117.801 C 389.721 117.745,389.270 117.808,389.645 116.683 C 389.973 115.697,389.908 43.848,389.578 43.377 C 389.125 42.729,388.390 42.669,380.964 42.668 L 373.845 42.667 373.256 43.184 M188.508 54.844 C 191.328 55.066,194.319 55.660,197.000 56.530 C 199.720 57.413,199.864 57.487,200.213 58.170 C 200.624 58.975,200.550 82.969,200.130 84.917 C 199.387 88.368,198.182 92.320,197.650 93.051 C 197.462 93.309,197.144 93.875,196.943 94.310 C 195.675 97.047,192.119 100.561,189.511 101.656 C 189.012 101.865,188.412 102.175,188.177 102.345 C 187.693 102.694,185.177 103.238,182.695 103.529 C 179.602 103.892,174.711 103.170,172.389 102.008 C 171.648 101.637,170.934 101.333,170.802 101.333 C 170.671 101.333,170.417 101.198,170.240 101.034 C 170.062 100.869,169.462 100.426,168.907 100.049 C 162.219 95.514,158.787 84.315,160.795 73.583 C 161.086 72.025,161.485 70.337,161.681 69.833 C 161.877 69.329,162.197 68.504,162.393 68.000 C 162.814 66.918,164.201 64.354,164.662 63.803 C 167.038 60.970,168.810 59.318,170.325 58.524 C 170.742 58.306,171.328 57.944,171.626 57.721 C 171.925 57.497,172.562 57.198,173.043 57.055 C 173.523 56.913,174.254 56.627,174.667 56.419 C 177.426 55.033,182.948 54.405,188.508 54.844 " stroke="none" fill="#f5f5f5" fill-rule="evenodd"></path></g></svg>